<svg width="15.000000" height="13.000000" viewBox="0 0 15 13" fill="none" xmlns="http://www.w3.org/2000/svg" xmlns:xlink="http://www.w3.org/1999/xlink">
	<desc>
			Created with Pixso.
	</desc>
	<defs/>
	<path id="Vector 13" d="M7.1 11.7C12.98 8.2 16.05 2.91 12.7 0.47C10.5 -1.13 8.04 0.15 7.1 0.96L7.08 0.96L7.08 0.96L7.06 0.96C6.13 0.15 3.67 -1.13 1.47 0.47C-1.88 2.91 1.18 8.2 7.06 11.7L7.08 11.7L7.08 11.7L7.1 11.7Z" fill="#B672FF" fill-opacity="1.000000" fill-rule="nonzero"/>
	<path id="Vector 13" d="M7.08 0.96L7.1 0.96C8.04 0.15 10.5 -1.13 12.7 0.47C16.05 2.91 12.98 8.2 7.1 11.7L7.08 11.7M7.08 0.96L7.06 0.96C6.13 0.15 3.67 -1.13 1.47 0.47C-1.88 2.91 1.18 8.2 7.06 11.7L7.08 11.7" stroke="#B672FF" stroke-opacity="1.000000" stroke-width="1.000000"/>
</svg>
